# xmcd
#
# Track frame offsets:
# 150
# 18113
# 39031
# 65769
# 85309
# 100830
# 124490
# 143221
# 163468
# 186349
# 209515
# 225328
# 242448
# 261335
# 288425
# 311129
# 329241
#
# Disc length: 4727 seconds
#
#
# Revision: 0
# Processed by: cddbd v1.5.2PL0 Copyright (c) Steve Scherf et al.
# Submitted via: FreeRIP 2.941 
#
DISCID=01127511
DTITLE=Graham Foster - Lo mejor de Graham Foster
DYEAR=2005
DGENRE=Blues
TTITLE0=Going back to Valencia
TTITLE1=Don't give up
TTITLE2=Technology vs people
TTITLE3=Love of a woman
TTITLE4=Solid Ground
TTITLE5=Restless age
TTITLE6=Angeline
TTITLE7=Night train
TTITLE8=Higher ground
TTITLE9=Discover me
TTITLE10=Feel so good
TTITLE11=She belongs to me
TTITLE12=Wind of change
TTITLE13=Alligator Crawl
TTITLE14=The temptress
TTITLE15=Blue rhythm
TTITLE16=One more shot of the blues
EXTD=
EXTT0=
EXTT1=
EXTT2=
EXTT3=
EXTT4=
EXTT5=
EXTT6=
EXTT7=
EXTT8=
EXTT9=
EXTT10=
EXTT11=
EXTT12=
EXTT13=
EXTT14=
EXTT15=
EXTT16=
PLAYORDER=
